<svg width="92" height="100" viewBox="0 0 92 100" fill="none" xmlns="http://www.w3.org/2000/svg">
<g filter="url(#filter0_i_2_245)">
<path d="M12.0303 100H8.00876C2.24742 100 -1.625 94.0938 0.672202 88.8102L37.1939 4.81019C38.4639 1.88931 41.3455 0 44.5305 0H47.0836C50.2687 0 53.1502 1.8893 54.4202 4.81018L90.9419 88.8102C93.2391 94.0938 89.3667 100 83.6054 100H79.5838C76.263 100 73.2874 97.9484 72.1066 94.8446L63.1984 71.4286L56.6766 53.5714L45.8071 25L34.9375 53.5714L28.4158 71.4286L19.5075 94.8446C18.3267 97.9484 15.3512 100 12.0303 100Z" fill="url(#paint0_linear_2_245)"/>
</g>
<defs>
<filter id="filter0_i_2_245" x="0" y="0" width="91.6141" height="104" filterUnits="userSpaceOnUse" color-interpolation-filters="sRGB">
<feFlood flood-opacity="0" result="BackgroundImageFix"/>
<feBlend mode="normal" in="SourceGraphic" in2="BackgroundImageFix" result="shape"/>
<feColorMatrix in="SourceAlpha" type="matrix" values="0 0 0 0 0 0 0 0 0 0 0 0 0 0 0 0 0 0 127 0" result="hardAlpha"/>
<feOffset dy="4"/>
<feGaussianBlur stdDeviation="2"/>
<feComposite in2="hardAlpha" operator="arithmetic" k2="-1" k3="1"/>
<feColorMatrix type="matrix" values="0 0 0 0 0.0392157 0 0 0 0 0.0392157 0 0 0 0 0.0588235 0 0 0 0.5 0"/>
<feBlend mode="normal" in2="shape" result="effect1_innerShadow_2_245"/>
</filter>
<linearGradient id="paint0_linear_2_245" x1="-4.19293" y1="0" x2="95.8071" y2="100" gradientUnits="userSpaceOnUse">
<stop stop-color="#7C3AED"/>
<stop offset="0.5" stop-color="#EC4899"/>
<stop offset="1" stop-color="#06B6DA"/>
</linearGradient>
</defs>
</svg>
