<svg width="475" height="150" viewBox="0 0 475 150" fill="none" xmlns="http://www.w3.org/2000/svg">
<rect width="475" height="150" rx="20" fill="#F4F4F8"/>
<g filter="url(#filter0_i_1_100)">
<path d="M66.2232 125H62.2017C56.4403 125 52.5679 119.094 54.8651 113.81L91.3869 29.8102C92.6568 26.8893 95.5384 25 98.7234 25H101.277C104.462 25 107.343 26.8893 108.613 29.8102L145.135 113.81C147.432 119.094 143.56 125 137.798 125H133.777C130.456 125 127.48 122.948 126.3 119.845L117.391 96.4286L110.87 78.5714L100 50L89.1304 78.5714L82.6087 96.4286L73.7004 119.845C72.5196 122.948 69.5441 125 66.2232 125Z" fill="url(#paint0_linear_1_100)"/>
</g>
<path d="M197.551 107.805C193.952 107.805 190.73 106.881 187.886 105.031C185.043 103.182 182.795 100.497 181.145 96.9773C179.494 93.4574 178.669 89.1818 178.669 84.1506C178.669 79.0597 179.504 74.7642 181.175 71.2642C182.865 67.7443 185.142 65.0895 188.006 63.2997C190.869 61.4901 194.061 60.5852 197.581 60.5852C200.266 60.5852 202.473 61.0426 204.203 61.9574C205.933 62.8523 207.305 63.9361 208.32 65.2088C209.334 66.4616 210.119 67.6449 210.676 68.7585H211.124V61.1818H221.952V107H211.332V99.7812H210.676C210.119 100.895 209.314 102.078 208.26 103.331C207.206 104.564 205.814 105.618 204.084 106.493C202.354 107.368 200.176 107.805 197.551 107.805ZM200.564 98.946C202.851 98.946 204.8 98.3295 206.411 97.0966C208.021 95.8437 209.244 94.1037 210.08 91.8764C210.915 89.6491 211.332 87.054 211.332 84.0909C211.332 81.1278 210.915 78.5526 210.08 76.3651C209.264 74.1776 208.051 72.4773 206.44 71.2642C204.849 70.0511 202.891 69.4446 200.564 69.4446C198.158 69.4446 196.149 70.071 194.538 71.3239C192.928 72.5767 191.714 74.3068 190.899 76.5142C190.084 78.7216 189.676 81.2472 189.676 84.0909C189.676 86.9545 190.084 89.5099 190.899 91.7571C191.734 93.9844 192.957 95.7443 194.568 97.0369C196.199 98.3097 198.197 98.946 200.564 98.946ZM237.537 80.1534V107H226.738V61.1818H237.059V68.9673H237.596C238.65 66.402 240.331 64.3636 242.638 62.8523C244.964 61.3409 247.838 60.5852 251.258 60.5852C254.42 60.5852 257.175 61.2614 259.521 62.6136C261.888 63.9659 263.717 65.9247 265.01 68.4901C266.322 71.0554 266.969 74.1676 266.949 77.8267V107H256.15V79.4972C256.15 76.4347 255.355 74.0384 253.764 72.3082C252.193 70.5781 250.015 69.7131 247.231 69.7131C245.342 69.7131 243.662 70.1307 242.19 70.9659C240.738 71.7812 239.595 72.9645 238.76 74.5156C237.944 76.0668 237.537 77.946 237.537 80.1534ZM294.085 61.1818V69.5341H267.746V61.1818H294.085ZM274.249 50.2045H285.047V93.2188C285.047 94.6705 285.266 95.7841 285.703 96.5597C286.16 97.3153 286.757 97.8324 287.493 98.1108C288.229 98.3892 289.044 98.5284 289.939 98.5284C290.615 98.5284 291.232 98.4787 291.788 98.3793C292.365 98.2798 292.803 98.1903 293.101 98.1108L294.92 106.553C294.344 106.751 293.518 106.97 292.445 107.209C291.391 107.447 290.098 107.587 288.567 107.626C285.862 107.706 283.426 107.298 281.259 106.403C279.091 105.489 277.371 104.077 276.098 102.168C274.845 100.259 274.229 97.8722 274.249 95.0085V50.2045ZM312.907 107.805C309.307 107.805 306.086 106.881 303.242 105.031C300.398 103.182 298.151 100.497 296.501 96.9773C294.85 93.4574 294.025 89.1818 294.025 84.1506C294.025 79.0597 294.86 74.7642 296.53 71.2642C298.221 67.7443 300.498 65.0895 303.361 63.2997C306.225 61.4901 309.417 60.5852 312.937 60.5852C315.621 60.5852 317.829 61.0426 319.559 61.9574C321.289 62.8523 322.661 63.9361 323.675 65.2088C324.689 66.4616 325.475 67.6449 326.032 68.7585H326.479V61.1818H337.307V107H326.688V99.7812H326.032C325.475 100.895 324.67 102.078 323.616 103.331C322.562 104.564 321.17 105.618 319.439 106.493C317.709 107.368 315.532 107.805 312.907 107.805ZM315.92 98.946C318.206 98.946 320.155 98.3295 321.766 97.0966C323.377 95.8437 324.6 94.1037 325.435 91.8764C326.27 89.6491 326.688 87.054 326.688 84.0909C326.688 81.1278 326.27 78.5526 325.435 76.3651C324.62 74.1776 323.407 72.4773 321.796 71.2642C320.205 70.0511 318.246 69.4446 315.92 69.4446C313.513 69.4446 311.505 70.071 309.894 71.3239C308.283 72.5767 307.07 74.3068 306.255 76.5142C305.439 78.7216 305.032 81.2472 305.032 84.0909C305.032 86.9545 305.439 89.5099 306.255 91.7571C307.09 93.9844 308.313 95.7443 309.924 97.0369C311.554 98.3097 313.553 98.946 315.92 98.946ZM378.307 73.2926L368.463 74.3665C368.185 73.3722 367.698 72.4375 367.002 71.5625C366.326 70.6875 365.411 69.9815 364.257 69.4446C363.104 68.9077 361.692 68.6392 360.022 68.6392C357.774 68.6392 355.885 69.1264 354.354 70.1009C352.843 71.0753 352.097 72.3381 352.117 73.8892C352.097 75.2216 352.584 76.3054 353.578 77.1406C354.593 77.9759 356.263 78.6619 358.59 79.1989L366.405 80.8693C370.74 81.804 373.962 83.2855 376.07 85.3139C378.198 87.3423 379.272 89.9972 379.292 93.2784C379.272 96.1619 378.426 98.7074 376.756 100.915C375.105 103.102 372.809 104.812 369.865 106.045C366.922 107.278 363.542 107.895 359.723 107.895C354.115 107.895 349.601 106.722 346.181 104.375C342.76 102.009 340.722 98.7173 340.066 94.5014L350.595 93.4872C351.073 95.5554 352.087 97.1165 353.638 98.1705C355.189 99.2244 357.208 99.7514 359.694 99.7514C362.259 99.7514 364.317 99.2244 365.868 98.1705C367.439 97.1165 368.225 95.8139 368.225 94.2628C368.225 92.9503 367.718 91.8665 366.703 91.0114C365.709 90.1562 364.158 89.5 362.05 89.0426L354.235 87.402C349.84 86.4872 346.588 84.946 344.48 82.7784C342.372 80.5909 341.328 77.8267 341.348 74.4858C341.328 71.6619 342.094 69.2159 343.645 67.1477C345.216 65.0597 347.394 63.4489 350.178 62.3153C352.982 61.1619 356.213 60.5852 359.872 60.5852C365.242 60.5852 369.468 61.7287 372.55 64.0156C375.652 66.3026 377.571 69.3949 378.307 73.2926ZM391.319 92.6222L391.29 79.5866H393.02L409.486 61.1818H422.103L401.849 83.733H399.612L391.319 92.6222ZM381.476 107V45.9091H392.274V107H381.476ZM410.231 107L395.317 86.1491L402.595 78.5426L423.148 107H410.231Z" fill="#0A0A0F"/>
<defs>
<filter id="filter0_i_1_100" x="54.1929" y="25" width="91.6141" height="104" filterUnits="userSpaceOnUse" color-interpolation-filters="sRGB">
<feFlood flood-opacity="0" result="BackgroundImageFix"/>
<feBlend mode="normal" in="SourceGraphic" in2="BackgroundImageFix" result="shape"/>
<feColorMatrix in="SourceAlpha" type="matrix" values="0 0 0 0 0 0 0 0 0 0 0 0 0 0 0 0 0 0 127 0" result="hardAlpha"/>
<feOffset dy="4"/>
<feGaussianBlur stdDeviation="2"/>
<feComposite in2="hardAlpha" operator="arithmetic" k2="-1" k3="1"/>
<feColorMatrix type="matrix" values="0 0 0 0 0.0392157 0 0 0 0 0.0392157 0 0 0 0 0.0588235 0 0 0 0.5 0"/>
<feBlend mode="normal" in2="shape" result="effect1_innerShadow_1_100"/>
</filter>
<linearGradient id="paint0_linear_1_100" x1="50" y1="25" x2="150" y2="125" gradientUnits="userSpaceOnUse">
<stop stop-color="#7C3AED"/>
<stop offset="0.5" stop-color="#EC4899"/>
<stop offset="1" stop-color="#06B6DA"/>
</linearGradient>
</defs>
</svg>
